<?xml version="1.0" encoding="UTF-8"?>
<svg width="170px" height="64px" viewBox="0 0 170 64" version="1.1" xmlns="http://www.w3.org/2000/svg" xmlns:xlink="http://www.w3.org/1999/xlink">
    <!-- Generator: Sketch 52.2 (67145) - http://www.bohemiancoding.com/sketch -->
    <title>万向区块链 logo</title>
    <desc>Created with Sketch.</desc>
    <g id="Page-1" stroke="none" stroke-width="1" fill="none" fill-rule="evenodd">
        <g id="platone-Gilroy-0925" transform="translate(-471.000000, -180.000000)">
            <g id="分组-20" transform="translate(471.000000, 180.000000)">
                <g id="万向区块链-logo">
                    <g id="XMLID_388_" fill="#2764AA">
                        <path d="M48.6131579,1.024 C48.6131579,0.768 48.4842105,0.64 48.2263158,0.512 C48.2263158,0.512 48.0973684,0.512 48.0973684,0.512 L47.5815789,0.512 C47.3236842,0.512 47.1947368,0.64 46.9368421,0.64 C46.4210526,0.768 45.9052632,0.896 45.5184211,1.024 C43.7131579,1.408 41.7789474,1.536 39.9736842,1.792 L39.2,1.92 C37.9105263,2.048 36.6210526,2.048 35.4605263,2.048 C35.0736842,2.048 34.6868421,2.048 34.3,2.048 C31.5921053,2.176 28.6263158,2.176 25.0157895,2.176 C22.4368421,2.176 19.7289474,2.048 16.1184211,1.92 C15.4736842,1.92 14.7,1.792 14.0552632,1.792 C12.6368421,1.792 11.2184211,1.664 9.8,1.536 C8.51052632,1.408 7.35,1.408 6.31842105,1.408 C4.51315789,1.536 2.96578947,2.56 1.80526316,4.096 C1.28947368,4.864 0.644736842,5.76 0.386842105,6.784 C0.386842105,6.912 0.257894737,7.04 0.257894737,7.296 C0.257894737,7.424 0.257894737,7.424 0.257894737,7.552 L0.257894737,8.064 C0.515789474,8.832 0.902631579,8.96 1.67631579,8.96 C2.19210526,8.96 2.70789474,8.832 3.22368421,8.704 C3.61052632,8.576 4.12631579,8.448 4.51315789,8.32 C5.15789474,7.936 6.06052632,7.68 6.96315789,7.424 C9.67105263,6.912 12.25,6.528 14.7,6.272 C16.6342105,6.144 18.4394737,6.144 20.7605263,6.144 C20.8894737,6.144 20.8894737,6.144 21.0184211,6.144 L21.2763158,6.144 L21.2763158,6.272 C21.2763158,7.424 21.1473684,8.448 20.8894737,9.472 C20.3736842,11.904 19.3421053,13.568 17.5368421,15.616 C15.9894737,17.536 14.1842105,19.2 12.5078947,20.608 C11.8631579,21.248 11.0894737,21.888 10.3157895,22.4 C8.89736842,23.68 7.35,24.96 5.93157895,26.24 C4.38421053,27.648 3.22368421,29.952 2.57894737,32.384 C2.19210526,34.048 2.19210526,35.712 2.06315789,37.376 C2.06315789,37.888 2.06315789,38.4 2.06315789,38.784 C2.06315789,39.424 2.06315789,39.936 2.06315789,40.576 C2.06315789,42.24 1.93421053,43.904 1.93421053,45.824 C1.80526316,47.744 1.80526316,49.408 1.67631579,50.944 C1.67631579,51.968 1.54736842,52.992 1.41842105,53.888 C1.41842105,54.144 1.41842105,54.4 1.28947368,54.528 C1.41842105,55.68 1.28947368,56.576 1.28947368,57.6 C1.28947368,58.88 1.80526316,60.032 2.70789474,61.056 C3.22368421,61.568 3.86842105,62.208 4.51315789,62.72 C4.77105263,62.976 5.15789474,63.232 5.41578947,63.36 C5.67368421,63.488 6.06052632,63.616 6.44736842,63.488 C6.96315789,63.36 7.35,63.104 7.60789474,62.592 C7.99473684,61.824 8.12368421,60.928 8.12368421,59.776 C8.12368421,58.496 7.99473684,57.344 7.86578947,56.064 C7.86578947,55.68 7.86578947,55.168 7.73684211,54.784 C7.73684211,54.144 7.60789474,53.376 7.60789474,52.736 C7.47894737,51.456 7.47894737,50.176 7.35,48.896 C7.22105263,46.72 7.22105263,44.928 7.09210526,43.136 C7.09210526,41.856 7.09210526,40.448 7.09210526,38.912 C7.09210526,37.504 7.22105263,36.096 7.22105263,34.944 C7.35,32.768 8.12368421,30.976 9.67105263,29.44 C10.4447368,28.672 11.3473684,27.776 12.25,26.88 L13.0236842,26.112 C14.4421053,24.704 15.9894737,23.296 17.5368421,21.888 C18.9552632,20.608 20.3736842,19.456 21.6631579,18.304 C22.4368421,17.664 23.3394737,17.28 24.3710526,17.28 C25.0157895,17.28 25.7894737,17.408 26.5631579,17.792 C27.3368421,18.176 28.1105263,18.56 28.6263158,19.072 C29.6578947,19.84 30.5605263,20.736 31.4631579,21.504 L31.7210526,21.76 C33.3973684,23.168 35.0736842,24.704 36.6210526,26.24 C38.0394737,27.776 39.3289474,29.44 40.6184211,31.744 C41.3921053,33.152 41.65,37.888 41.65,39.04 C41.65,40.32 41.65,41.728 41.65,43.008 C41.65,44.288 41.7789474,45.696 41.65,46.976 L41.65,47.104 C41.65,48.128 41.65,49.152 41.65,50.304 C41.5210526,52.352 41.5210526,54.144 41.3921053,55.936 C41.2631579,56.96 41.1342105,58.112 41.0052632,59.392 C41.0052632,59.776 40.8763158,60.032 40.8763158,60.416 C40.8763158,60.928 40.7473684,61.44 40.6184211,61.952 C40.4894737,62.976 40.7473684,63.488 41.65,63.744 C42.5526316,64 43.4552632,64 44.2289474,63.872 C44.8736842,63.744 46.1631579,63.36 46.6789474,62.464 C46.9368421,62.08 47.0657895,61.568 47.1947368,60.928 C47.3236842,59.776 47.3236842,58.752 47.3236842,57.344 C47.3236842,56.704 47.1947368,55.936 47.1947368,55.296 C47.0657895,54.144 47.0657895,52.992 46.9368421,51.84 C46.9368421,50.944 46.8078947,50.048 46.8078947,49.152 C46.8078947,48.384 46.8078947,47.616 46.6789474,46.72 C46.6789474,45.696 46.55,44.8 46.55,43.776 C46.55,42.88 46.4210526,41.984 46.4210526,41.216 C46.4210526,40.832 46.4210526,40.448 46.4210526,40.064 C46.2921053,38.528 46.2921053,36.992 46.2921053,35.456 C46.2921053,33.28 45.7763158,31.36 44.6157895,29.568 C43.8421053,28.16 42.6815789,26.88 41.2631579,25.472 C39.3289474,23.552 37.3947368,21.632 35.7184211,20.096 C33.6552632,18.048 31.4631579,16.256 29.6578947,14.72 C28.6263158,13.952 27.2078947,13.184 25.9184211,12.8 C25.9184211,12.8 25.7894737,12.8 25.7894737,12.8 C25.7894737,12.8 25.7894737,12.8 25.7894737,12.8 L25.7894737,12.288 L25.7894737,12.16 C26.5631579,10.624 26.95,8.96 27.4657895,7.296 C27.5947368,6.912 27.5947368,6.656 27.7236842,6.272 L27.7236842,6.144 L27.8526316,6.144 C28.2394737,6.144 28.4973684,6.144 28.8842105,6.144 C29.6578947,6.144 30.4315789,6.144 31.0763158,6.272 C32.7526316,6.4 34.4289474,6.528 36.1052632,6.784 C36.8789474,6.912 37.5236842,6.912 38.2973684,7.04 C39.4578947,7.168 40.8763158,7.296 42.1657895,7.168 C43.5842105,7.04 44.8736842,6.528 45.7763158,5.632 C46.4210526,5.12 46.9368421,4.48 47.4526316,3.712 C47.8394737,3.2 48.2263158,2.56 48.4842105,1.92 C48.4842105,1.664 48.6131579,1.408 48.6131579,1.024 Z" id="XMLID_393_"></path>
                        <path d="M36.4921053,33.152 C36.4921053,32.512 36.1052632,31.872 35.5894737,31.488 C34.6868421,30.848 33.1394737,30.848 32.2368421,31.232 C30.1736842,32 30.4315789,34.304 30.6894737,36.096 C30.6894737,36.352 30.8184211,36.736 30.8184211,36.992 C26.4342105,37.376 22.3078947,37.376 18.3105263,37.12 C18.3105263,36.608 18.4394737,36.224 18.4394737,35.712 C18.5684211,34.304 18.8263158,32.896 18.0526316,32 C17.6657895,31.488 16.8921053,31.104 15.9894737,30.976 C14.9578947,30.848 14.0552632,31.232 13.4105263,31.872 C12.7657895,32.512 12.5078947,33.536 12.7657895,34.432 C13.2815789,36.608 13.5394737,38.784 13.4105263,41.216 C13.4105263,41.856 13.4105263,42.496 13.2815789,43.264 C13.0236842,46.208 12.8947368,49.536 14.3131579,52.096 C15.8605263,54.784 19.0842105,56.192 23.5973684,56.192 C23.8552632,56.192 23.9842105,56.192 24.2421053,56.192 C24.3710526,56.192 24.6289474,56.192 24.7578947,56.192 C27.7236842,56.064 31.5921053,56.064 33.9131579,53.76 C35.9763158,51.712 35.9763158,47.872 35.9763158,45.312 L35.9763158,45.056 C35.9763158,44.416 35.9763158,43.648 35.9763158,43.008 C36.1052632,39.552 36.1052632,36.48 36.4921053,33.152 Z M31.2052632,45.696 C31.2052632,46.848 31.2052632,49.536 30.4315789,50.176 C28.4973684,52.224 23.4684211,52.352 21.0184211,51.456 C19.3421053,50.816 18.3105263,49.408 18.1815789,47.104 C18.0526316,45.824 18.0526316,44.544 18.0526316,43.264 L18.0526316,43.008 C18.0526316,42.624 18.0526316,41.856 18.0526316,41.472 C18.0526316,41.472 18.1815789,41.472 18.1815789,41.472 C19.3421053,41.472 21.6631579,41.472 23.2105263,41.472 C25.2736842,41.472 27.4657895,41.472 29.5289474,41.472 C29.7868421,41.472 29.9157895,41.472 30.1736842,41.472 C30.4315789,41.472 30.6894737,41.472 30.9473684,41.472 C31.0763158,41.472 31.2052632,41.472 31.2052632,41.472 C31.2052632,41.472 31.2052632,41.6 31.2052632,41.6 C31.3342105,43.264 31.3342105,44.032 31.3342105,44.928 C31.2052632,45.312 31.2052632,45.44 31.2052632,45.696 Z" id="XMLID_430_" fill-rule="nonzero"></path>
                    </g>
                    <g id="XMLID_1295_" transform="translate(60.000000, 8.000000)" fill="#929292">
                        <g id="XMLID_1387_" transform="translate(0.000000, 31.875000)">
                            <g id="XMLID_1409_" transform="translate(0.000000, 1.275000)">
                                <path d="M7.3421875,2.805 C7.3421875,3.4425 7.3421875,3.9525 7.21559806,4.59 C7.21559806,5.1 7.59536638,5.4825 8.10172414,5.4825 L15.3173222,5.4825 C15.82368,5.4825 16.2034483,5.865 16.2034483,6.375 L16.2034483,15.555 C16.2034483,16.065 15.82368,16.4475 15.3173222,16.4475 C14.1780172,16.4475 12.0259968,16.4475 10.8866918,16.4475 C10.5069235,16.4475 10.2537446,16.1925 10.1271552,15.81 C10.1271552,15.81 10.1271552,15.81 10.1271552,15.81 C9.87397629,15.1725 10.3803341,14.6625 11.0132813,14.6625 L13.4184806,14.6625 C13.9248384,14.6625 14.3046067,14.28 14.3046067,13.77 L14.3046067,8.0325 C14.3046067,7.5225 13.9248384,7.14 13.4184806,7.14 L7.84854526,7.14 C7.46877694,7.14 7.08900862,7.395 6.96241918,7.905 C6.32947198,11.0925 4.93698815,14.1525 1.77225216,16.1925 C1.39248384,16.4475 0.886126078,16.32 0.632947198,16.065 C0.632947198,16.065 0.506357759,15.9375 0.506357759,15.9375 C0.12658944,15.555 0.253178879,14.9175 0.632947198,14.535 C4.81039871,11.73 5.31675647,7.0125 5.44334591,2.805 C5.44334591,2.295 5.06357759,1.9125 4.55721983,1.9125 L1.13930496,1.9125 C0.632947198,1.9125 0.253178879,1.53 0.253178879,1.02 C0.253178879,0.51 0.632947198,0.1275 1.13930496,0.1275 L17.0895744,0.1275 C17.5959321,0.1275 17.9757004,0.51 17.9757004,1.02 C17.9757004,1.53 17.5959321,1.9125 17.0895744,1.9125 L8.22831358,1.9125 C7.72195582,1.9125 7.3421875,2.295 7.3421875,2.805 Z" id="XMLID_1410_"></path>
                            </g>
                            <g id="XMLID_1404_" transform="translate(22.786099, 0.000000)" fill-rule="nonzero">
                                <path d="M17.2161638,15.6825 L17.2161638,17.085 C17.2161638,17.595 16.8363955,17.9775 16.3300377,17.9775 L13.1653017,17.9775 C12.7855334,17.9775 12.4057651,17.7225 12.2791756,17.34 C12.2791756,17.34 12.2791756,17.34 12.2791756,17.34 C12.0259968,16.7025 12.5323545,16.065 13.1653017,16.065 C13.6716595,16.065 14.0514278,16.065 14.4311961,16.065 C14.9375539,16.065 15.3173222,15.6825 15.3173222,15.1725 L15.3173222,5.9925 C15.3173222,5.4825 14.9375539,5.1 14.4311961,5.1 L3.54450431,5.1 C3.03814655,5.1 2.65837823,5.4825 2.65837823,5.9925 L2.65837823,16.9575 C2.65837823,17.4675 2.27860991,17.85 1.77225216,17.85 L1.64566272,17.85 C1.13930496,17.85 0.759536638,17.4675 0.759536638,16.9575 L0.759536638,4.2075 C0.759536638,3.6975 1.13930496,3.315 1.64566272,3.315 L5.69652478,3.315 C6.0762931,3.315 6.45606142,3.06 6.58265086,2.805 C6.83582974,2.1675 7.08900862,1.53 7.3421875,0.8925 C7.46877694,0.51 7.9751347,0.1275 8.35490302,0.255 L8.73467134,0.3825 C9.36761853,0.51 9.62079741,1.1475 9.36761853,1.6575 C9.24102909,1.785 9.24102909,1.9125 9.11443966,2.1675 C8.86126078,2.805 9.24102909,3.4425 9.87397629,3.4425 L16.3300377,3.4425 C16.8363955,3.4425 17.2161638,3.825 17.2161638,4.335 L17.2161638,15.6825 Z M4.93698815,13.005 L4.93698815,8.415 C4.93698815,7.905 5.31675647,7.5225 5.82311422,7.5225 L11.8994073,7.5225 C12.4057651,7.5225 12.7855334,7.905 12.7855334,8.415 L12.7855334,13.005 C12.7855334,13.515 12.4057651,13.8975 11.8994073,13.8975 L5.82311422,13.8975 C5.31675647,13.8975 4.93698815,13.515 4.93698815,13.005 Z M6.7092403,9.945 L6.7092403,11.3475 C6.7092403,11.8575 7.08900862,12.24 7.59536638,12.24 L10.2537446,12.24 C10.7601024,12.24 11.1398707,11.8575 11.1398707,11.3475 L11.1398707,9.945 C11.1398707,9.435 10.7601024,9.0525 10.2537446,9.0525 L7.59536638,9.0525 C7.08900862,9.0525 6.7092403,9.435 6.7092403,9.945 Z" id="XMLID_1405_"></path>
                            </g>
                            <g id="XMLID_1400_" transform="translate(45.572198, 1.275000)" fill-rule="nonzero">
                                <path d="M17.7225216,15.81 C17.7225216,16.32 17.3427532,16.7025 16.8363955,16.7025 L1.13930496,16.7025 C0.632947198,16.7025 0.253178879,16.32 0.253178879,15.81 L0.253178879,1.1475 C0.253178879,0.6375 0.632947198,0.255 1.13930496,0.255 L16.3300377,0.255 C16.8363955,0.255 17.2161638,0.6375 17.2161638,1.1475 C17.2161638,1.6575 16.8363955,2.04 16.3300377,2.04 L3.03814655,2.04 C2.53178879,2.04 2.15202047,2.4225 2.15202047,2.9325 L2.15202047,14.1525 C2.15202047,14.6625 2.53178879,15.045 3.03814655,15.045 L16.8363955,15.045 C17.3427532,14.9175 17.7225216,15.3 17.7225216,15.81 Z M13.54507,13.1325 C12.7855334,12.24 11.6462284,11.22 10.5069235,10.0725 C10.1271552,9.8175 9.74738685,9.8175 9.36761853,10.0725 C7.9751347,11.3475 6.58265086,12.3675 5.19016703,13.3875 C4.81039871,13.6425 4.43063039,13.515 4.17745151,13.26 C4.17745151,13.26 4.05086207,13.1325 4.05086207,13.1325 C3.67109375,12.75 3.67109375,12.1125 4.17745151,11.8575 C5.44334591,11.0925 6.7092403,10.2 7.84854526,9.18 C8.22831358,8.7975 8.22831358,8.2875 7.84854526,7.905 C6.83582974,7.0125 5.69652478,6.12 4.68380927,5.355 C4.30404095,4.9725 4.30404095,4.335 4.68380927,4.08 C4.93698815,3.825 5.44334591,3.825 5.69652478,4.08 C6.83582974,4.9725 8.10172414,5.865 9.24102909,6.885 C9.62079741,7.14 10.1271552,7.14 10.3803341,6.7575 C11.2664601,5.7375 12.1525862,4.7175 12.7855334,3.57 C13.0387123,3.1875 13.4184806,3.06 13.7982489,3.1875 L13.9248384,3.1875 C14.4311961,3.4425 14.684375,3.9525 14.3046067,4.4625 C13.54507,5.61 12.658944,6.7575 11.7728179,7.7775 C11.3930496,8.16 11.519639,8.67 11.8994073,8.925 C13.0387123,9.945 14.1780172,10.965 15.0641433,11.8575 C15.4439116,12.24 15.4439116,12.75 15.0641433,13.1325 L14.8109644,13.3875 C14.3046067,13.515 13.7982489,13.515 13.54507,13.1325 Z" id="XMLID_1401_"></path>
                            </g>
                            <g id="XMLID_1395_" transform="translate(91.144397, 0.000000)">
                                <path d="M0.886126078,6.7575 C0.886126078,6.885 0.759536638,6.7575 0.632947198,6.7575 L0.12658944,5.7375 C0,5.4825 0,5.1 0.12658944,4.7175 C0.759536638,3.825 1.2658944,2.55 1.64566272,1.275 C1.77225216,0.8925 2.15202047,0.765 2.53178879,0.765 L2.78496767,0.8925 C3.16473599,1.02 3.41791487,1.4025 3.29132543,1.785 L3.16473599,2.295 C3.16473599,2.4225 3.29132543,2.6775 3.41791487,2.6775 L5.19016703,2.6775 C5.56993534,2.6775 5.82311422,2.9325 5.82311422,3.315 L5.82311422,3.57 C5.82311422,3.9525 5.56993534,4.2075 5.19016703,4.2075 L2.78496767,4.2075 C2.53178879,4.2075 2.27860991,4.335 2.15202047,4.59 C1.89884159,5.1 1.51907328,5.61 1.2658944,6.12 L4.81039871,6.12 C5.06357759,6.12 5.31675647,6.375 5.31675647,6.63 L5.31675647,7.14 C5.31675647,7.395 5.06357759,7.65 4.81039871,7.65 L4.17745151,7.65 C3.92427263,7.65 3.79768319,7.7775 3.79768319,8.0325 L3.79768319,9.5625 C3.79768319,9.8175 4.05086207,10.0725 4.30404095,10.0725 L5.31675647,10.0725 C5.56993534,10.0725 5.82311422,10.3275 5.82311422,10.5825 L5.82311422,11.0925 C5.82311422,11.3475 5.56993534,11.6025 5.31675647,11.6025 L4.30404095,11.6025 C4.05086207,11.6025 3.79768319,11.8575 3.79768319,12.1125 L3.79768319,14.6625 C3.79768319,14.79 3.92427263,14.9175 4.05086207,14.79 L4.93698815,14.1525 C5.19016703,14.025 5.44334591,14.1525 5.56993534,14.4075 C5.56993534,14.535 5.69652478,14.79 5.82311422,14.9175 C5.94970366,15.1725 5.82311422,15.3 5.69652478,15.4275 C3.67109375,16.83 2.65837823,17.595 2.27860991,17.9775 C2.15202047,18.105 2.02543103,18.105 1.89884159,17.9775 C1.77225216,17.85 1.64566272,17.595 1.51907328,17.4675 C1.39248384,17.2125 1.2658944,16.9575 1.51907328,16.7025 C1.77225216,16.32 2.15202047,15.81 2.15202047,15.1725 L2.15202047,12.24 C2.15202047,11.985 1.89884159,11.73 1.64566272,11.73 L0.759536638,11.73 C0.506357759,11.73 0.253178879,11.475 0.253178879,11.22 L0.253178879,10.71 C0.253178879,10.455 0.506357759,10.2 0.759536638,10.2 L1.64566272,10.2 C1.89884159,10.2 2.15202047,9.945 2.15202047,9.69 L2.15202047,8.16 C2.15202047,7.905 2.02543103,7.7775 1.77225216,7.7775 L1.51907328,7.7775 C1.2658944,7.7775 1.01271552,7.5225 1.01271552,7.2675 L1.01271552,6.375 L0.886126078,6.7575 Z" id="XMLID_1399_"></path>
                                <path d="M8.98785022,14.6625 C8.98785022,14.79 9.11443966,14.9175 9.24102909,15.045 C9.49420797,15.1725 9.87397629,15.4275 10.2537446,15.6825 C11.2664601,16.32 12.5323545,16.4475 14.0514278,16.4475 C15.1907328,16.4475 16.8363955,16.32 18.1022899,16.32 C18.3554687,16.32 18.6086476,16.575 18.4820582,16.83 C18.3554688,17.085 18.3554688,17.4675 18.2288793,17.7225 C18.2288793,17.9775 17.9757004,18.105 17.849111,18.105 C16.709806,18.2325 15.0641433,18.2325 13.9248384,18.2325 C12.1525862,18.2325 11.0132812,17.9775 9.87397629,17.34 C9.24102909,16.9575 8.6080819,16.4475 8.22831358,16.4475 C7.72195582,16.4475 7.08900862,17.2125 6.58265086,17.9775 C6.45606142,18.2325 6.0762931,18.2325 5.94970366,17.9775 L5.31675647,17.085 C5.19016703,16.9575 5.19016703,16.7025 5.31675647,16.575 C5.82311422,16.065 6.45606142,15.555 6.96241918,15.3 C7.08900862,15.1725 7.21559806,15.045 7.21559806,14.9175 L7.21559806,9.3075 C7.21559806,9.0525 7.08900862,8.925 6.83582974,8.925 L6.32947198,8.925 C6.0762931,8.925 5.94970366,8.7975 5.94970366,8.5425 L5.94970366,7.7775 C5.94970366,7.5225 6.0762931,7.395 6.32947198,7.395 L8.6080819,7.395 C8.86126078,7.395 8.98785022,7.5225 8.98785022,7.7775 L8.98785022,14.6625 Z" id="XMLID_1398_"></path>
                                <path d="M7.3421875,5.61 C7.08900862,4.7175 6.7092403,3.6975 6.20288254,2.805 C6.0762931,2.55 6.20288254,2.295 6.45606142,2.1675 L7.21559806,1.9125 C7.46877694,1.9125 7.59536638,1.9125 7.72195582,2.1675 C8.22831358,3.06 8.6080819,4.2075 8.86126078,4.9725 C8.98785022,5.2275 8.86126078,5.4825 8.6080819,5.4825 L7.84854526,5.7375 C7.59536638,5.9925 7.3421875,5.865 7.3421875,5.61 Z" id="XMLID_1397_"></path>
                                <path d="M11.8994073,8.925 C11.519639,8.925 11.0132813,8.925 10.7601024,9.0525 C10.5069235,9.0525 10.2537446,8.925 10.1271552,8.67 C10.0005657,8.415 10.0005657,8.16 9.87397629,7.905 C9.74738685,7.65 9.87397629,7.5225 10.0005657,7.395 C10.2537446,7.14 10.3803341,6.7575 10.6335129,6.375 C10.7601024,6.12 10.8866918,5.61 11.1398707,4.9725 C11.2664601,4.59 11.0132813,4.335 10.6335129,4.335 L9.87397629,4.335 C9.62079741,4.335 9.36761853,4.08 9.36761853,3.825 L9.36761853,3.1875 C9.36761853,2.9325 9.62079741,2.6775 9.87397629,2.6775 L11.3930496,2.6775 C11.6462284,2.6775 11.7728179,2.55 11.8994073,2.295 C12.0259968,1.9125 12.1525862,1.4025 12.1525862,1.02 C12.1525862,0.765 12.4057651,0.6375 12.7855334,0.6375 L13.6716595,0.765 C13.9248384,0.765 14.1780172,1.1475 14.0514278,1.4025 C14.0514278,1.6575 13.9248384,1.785 13.9248384,2.04 C13.7982489,2.4225 14.0514278,2.6775 14.4311961,2.6775 L17.7225216,2.6775 C17.9757004,2.6775 18.2288793,2.9325 18.2288793,3.1875 L18.2288793,3.825 C18.2288793,4.08 17.9757004,4.335 17.7225216,4.335 L13.54507,4.335 C13.2918912,4.335 13.1653017,4.4625 13.0387123,4.59 C12.7855334,5.355 12.4057651,5.9925 12.1525862,6.63 C12.0259968,7.0125 12.2791756,7.395 12.658944,7.395 L13.0387123,7.395 C13.2918912,7.395 13.54507,7.14 13.54507,6.885 L13.54507,5.7375 C13.54507,5.4825 13.7982489,5.2275 14.0514278,5.2275 L14.8109644,5.2275 C15.0641433,5.2275 15.3173222,5.4825 15.3173222,5.7375 L15.3173222,6.885 C15.3173222,7.14 15.5705011,7.395 15.82368,7.395 L17.4693427,7.395 C17.7225216,7.395 17.9757004,7.65 17.9757004,7.905 L17.9757004,8.415 C17.9757004,8.67 17.7225216,8.925 17.4693427,8.925 L15.82368,8.925 C15.5705011,8.925 15.3173222,9.18 15.3173222,9.435 L15.3173222,10.71 C15.3173222,10.965 15.5705011,11.22 15.82368,11.22 L17.9757004,11.22 C18.2288793,11.22 18.4820582,11.475 18.4820582,11.73 L18.4820582,12.3675 C18.4820582,12.6225 18.2288793,12.8775 17.9757004,12.8775 L15.82368,12.8775 C15.5705011,12.8775 15.3173222,13.1325 15.3173222,13.3875 L15.3173222,15.3 C15.3173222,15.555 15.0641433,15.81 14.8109644,15.81 L14.0514278,15.81 C13.7982489,15.81 13.54507,15.555 13.54507,15.3 L13.54507,13.26 C13.54507,13.005 13.2918912,12.75 13.0387123,12.75 L10.1271552,12.75 C9.87397629,12.75 9.62079741,12.495 9.62079741,12.24 L9.62079741,11.6025 C9.62079741,11.3475 9.87397629,11.0925 10.1271552,11.0925 L13.1653017,11.0925 C13.4184806,11.0925 13.6716595,10.8375 13.6716595,10.5825 L13.6716595,9.3075 C13.6716595,9.0525 13.4184806,8.7975 13.1653017,8.7975 L11.8994073,8.7975 L11.8994073,8.925 Z" id="XMLID_1396_"></path>
                            </g>
                            <g id="XMLID_1388_" transform="translate(67.959591, 0.000000)">
                                <path d="M5.46228448,11.8575 C5.33569504,11.8575 5.2091056,11.985 5.08251616,11.985 C4.57615841,12.1125 4.19639009,11.8575 4.19639009,11.3475 L4.19639009,7.65 C4.19639009,7.2675 4.44956897,7.0125 4.82933728,7.0125 L5.58887392,7.0125 C5.96864224,7.0125 6.22182112,6.7575 6.22182112,6.375 L6.22182112,5.9925 C6.22182112,5.61 5.96864224,5.355 5.58887392,5.355 L4.82933728,5.355 C4.44956897,5.355 4.19639009,5.1 4.19639009,4.7175 L4.19639009,1.02 C4.19639009,0.6375 3.94321121,0.3825 3.56344289,0.3825 L3.18367457,0.3825 C2.80390625,0.3825 2.55072737,0.6375 2.55072737,1.02 L2.55072737,4.7175 C2.55072737,5.1 2.29754849,5.355 1.91778017,5.355 L0.905064655,5.355 C0.525296336,5.355 0.272117457,5.61 0.272117457,5.9925 L0.272117457,6.375 C0.272117457,6.7575 0.525296336,7.0125 0.905064655,7.0125 L1.91778017,7.0125 C2.29754849,7.0125 2.55072737,7.2675 2.55072737,7.65 L2.55072737,12.495 C2.55072737,12.75 2.42413793,13.005 2.17095905,13.1325 C1.66460129,13.3875 1.15824353,13.515 0.651885776,13.77 C0.272117457,13.8975 0.145528017,14.28 0.272117457,14.6625 L0.525296336,15.1725 C0.651885776,15.555 1.03165409,15.6825 1.41142241,15.555 C2.93049569,14.9175 4.70274784,14.1525 6.34841056,13.3875 C6.60158944,13.26 6.85476832,12.8775 6.72817888,12.6225 L6.60158944,12.3675 C6.22182112,11.985 5.8420528,11.73 5.46228448,11.8575 Z M16.8553341,8.0325 L16.8553341,3.825 C16.8553341,3.4425 16.6021552,3.1875 16.2223869,3.1875 L13.0576509,3.1875 C12.6778825,3.1875 12.4247037,2.9325 12.4247037,2.55 L12.4247037,1.02 C12.4247037,0.6375 12.1715248,0.3825 11.7917565,0.3825 L11.2853987,0.3825 C10.9056304,0.3825 10.6524515,0.6375 10.6524515,1.02 L10.6524515,2.55 C10.6524515,2.9325 10.3992726,3.1875 10.0195043,3.1875 L7.99407328,3.1875 C7.61430496,3.1875 7.36112608,3.4425 7.36112608,3.825 L7.36112608,4.2075 C7.36112608,4.59 7.61430496,4.845 7.99407328,4.845 L10.0195043,4.845 C10.3992726,4.845 10.6524515,5.1 10.6524515,5.4825 L10.6524515,6.7575 C10.6524515,7.14 10.6524515,7.65 10.6524515,8.0325 C10.6524515,8.415 10.2726832,8.67 10.0195043,8.67 L7.48771552,8.67 C7.1079472,8.67 6.85476832,8.925 6.85476832,9.3075 L6.85476832,9.69 C6.85476832,10.0725 7.1079472,10.3275 7.48771552,10.3275 L9.51314655,10.3275 C10.0195043,10.3275 10.2726832,10.8375 10.1460937,11.22 C9.51314655,13.005 8.24725216,14.535 5.8420528,15.9375 C5.46228448,16.1925 5.33569504,16.7025 5.71546336,16.9575 C5.8420528,17.085 5.8420528,17.2125 5.96864224,17.2125 C6.22182112,17.4675 6.475,17.4675 6.72817888,17.34 C10.0195043,15.6825 11.4119881,13.3875 12.0449353,10.965 C12.0449353,10.965 12.0449353,10.8375 12.0449353,10.71 C12.0449353,10.3275 12.4247037,10.0725 12.804472,10.0725 L13.5640086,10.0725 L17.6148707,10.0725 C17.994639,10.0725 18.2478179,9.8175 18.2478179,9.435 L18.2478179,9.0525 C18.2478179,8.67 17.994639,8.415 17.6148707,8.415 C17.1085129,8.7975 16.8553341,8.415 16.8553341,8.0325 Z M14.3235453,8.7975 L12.9310614,8.7975 C12.5512931,8.7975 12.1715248,8.415 12.2981142,8.0325 C12.2981142,7.65 12.2981142,7.2675 12.2981142,6.885 L12.2981142,5.61 C12.2981142,5.2275 12.5512931,4.9725 12.9310614,4.9725 L14.3235453,4.9725 C14.7033136,4.9725 14.9564925,5.2275 14.9564925,5.61 L14.9564925,8.16 C15.0830819,8.415 14.7033136,8.7975 14.3235453,8.7975 Z" id="XMLID_1390_" fill-rule="nonzero"></path>
                                <path d="M14.1969558,12.24 L13.6905981,12.24 C13.1842403,12.24 12.804472,12.75 13.0576509,13.26 C14.0703664,15.4275 15.4628502,17.085 17.3616918,18.2325 C17.6148707,18.36 17.994639,18.36 18.2478179,17.9775 C18.3744073,17.85 18.5009968,17.595 18.6275862,17.4675 C18.8807651,17.085 18.7541756,16.575 18.3744073,16.4475 C16.7287446,15.555 15.4628502,14.28 14.5767241,12.6225 C14.7033136,12.3675 14.4501347,12.24 14.1969558,12.24 Z" id="XMLID_1389_"></path>
                            </g>
                        </g>
                        <g id="XMLID_1358_">
                            <path d="M12.9121228,13.26 L9.74738685,2.805 C9.62079741,2.55 9.24102909,2.55 9.11443966,2.805 L5.94970366,13.26 C5.82311422,13.515 5.56993534,13.77 5.31675647,13.77 L4.43063039,13.77 C4.17745151,13.77 3.79768319,13.515 3.79768319,13.26 L0,0.6375 C0,0.51 0.12658944,0.255 0.253178879,0.255 L1.39248384,0.255 C1.77225216,0.255 2.02543103,0.51 2.02543103,0.765 L4.55721983,10.5825 C4.68380927,10.965 5.06357759,10.965 5.19016703,10.5825 C5.94970366,8.0325 7.59536638,2.4225 8.22831358,0.6375 C8.35490302,0.3825 8.6080819,0.1275 8.86126078,0.1275 L10.2537446,0.1275 C10.5069235,0.1275 10.8866918,0.3825 10.8866918,0.6375 C11.3930496,2.295 13.0387123,7.7775 13.6716595,10.455 C13.7982489,10.8375 14.1780172,10.8375 14.3046067,10.455 C14.9375539,7.905 16.4566272,2.4225 16.9629849,0.6375 C17.0895744,0.3825 17.3427532,0.1275 17.5959321,0.1275 L18.7352371,0.1275 C18.8618265,0.1275 18.9884159,0.255 18.9884159,0.51 L15.1907328,13.1325 C15.0641433,13.3875 14.8109644,13.6425 14.5577856,13.6425 L13.6716595,13.6425 C13.2918912,13.77 13.0387123,13.6425 12.9121228,13.26 Z" id="XMLID_1386_"></path>
                            <path d="M44.5594828,13.77 L43.5467672,13.77 C43.2935884,13.77 43.1669989,13.6425 43.0404095,13.515 L36.0779903,3.6975 C35.9514009,3.4425 35.4450431,3.57 35.4450431,3.9525 L35.4450431,13.1325 C35.4450431,13.515 35.1918642,13.8975 34.6855065,13.8975 L34.1791487,13.8975 C33.7993804,13.8975 33.4196121,13.6425 33.4196121,13.1325 L33.4196121,1.02 C33.4196121,0.6375 33.6727909,0.255 34.1791487,0.255 L35.1918642,0.255 C35.4450431,0.255 35.5716325,0.3825 35.698222,0.51 L42.6606412,10.2 C42.7872306,10.455 43.2935884,10.3275 43.2935884,9.945 L43.2935884,0.8925 C43.2935884,0.51 43.5467672,0.1275 44.053125,0.1275 L44.5594828,0.1275 C44.9392511,0.1275 45.3190194,0.3825 45.3190194,0.8925 L45.3190194,13.005 C45.3190194,13.515 44.9392511,13.77 44.5594828,13.77 Z" id="XMLID_1384_"></path>
                            <path d="M92.1571121,13.77 L91.1443966,13.77 C90.8912177,13.77 90.7646282,13.6425 90.6380388,13.515 L83.6756196,3.6975 C83.5490302,3.4425 83.0426724,3.57 83.0426724,3.9525 L83.0426724,13.1325 C83.0426724,13.515 82.7894935,13.8975 82.2831358,13.8975 L81.776778,13.8975 C81.3970097,13.8975 81.0172414,13.6425 81.0172414,13.1325 L81.0172414,1.02 C81.0172414,0.6375 81.2704203,0.255 81.776778,0.255 L82.7894935,0.255 C83.0426724,0.255 83.1692619,0.3825 83.2958513,0.51 L90.2582705,10.2 C90.3848599,10.455 90.8912177,10.3275 90.8912177,9.945 L90.8912177,0.8925 C90.8912177,0.51 91.1443966,0.1275 91.6507543,0.1275 L92.1571121,0.1275 C92.5368804,0.1275 92.9166487,0.3825 92.9166487,0.8925 L92.9166487,13.005 C92.9166487,13.515 92.5368804,13.77 92.1571121,13.77 Z" id="XMLID_1382_"></path>
                            <path d="M60.0033944,13.77 L58.3577317,13.77 C58.1045528,13.77 57.9779634,13.6425 57.8513739,13.515 L54.0536907,8.5425 C53.9271013,8.2875 53.547333,8.2875 53.4207435,8.5425 C52.9143858,9.3075 51.5219019,10.965 49.4964709,13.515 C49.3698815,13.6425 49.1167026,13.77 48.9901131,13.77 L47.4710399,13.77 C47.217861,13.77 47.0912716,13.515 47.3444504,13.3875 L52.5346175,7.0125 C52.6612069,6.885 52.6612069,6.63 52.5346175,6.5025 L47.9773976,0.765 C47.8508082,0.6375 47.9773976,0.3825 48.2305765,0.3825 L49.7496498,0.3825 C50.0028287,0.3825 50.1294181,0.51 50.2560075,0.6375 C50.8889547,1.53 52.7877963,3.9525 53.6739224,5.1 C53.8005119,5.355 54.1802802,5.355 54.3068696,5.1 C54.8132274,4.335 56.0791218,2.9325 57.9779634,0.6375 C58.1045528,0.51 58.3577317,0.3825 58.4843211,0.3825 L59.7502155,0.3825 C60.0033944,0.3825 60.1299838,0.6375 59.876805,0.765 L55.0664063,6.375 C54.9398168,6.5025 54.9398168,6.7575 55.0664063,6.885 L60.1299838,13.3875 C60.2565733,13.515 60.1299838,13.77 60.0033944,13.77 Z" id="XMLID_1372_"></path>
                            <path d="M63.4213093,13.77 L62.7883621,13.77 C62.4085938,13.77 62.0288254,13.515 62.0288254,13.005 L62.0288254,0.8925 C62.0288254,0.51 62.2820043,0.1275 62.7883621,0.1275 L63.4213093,0.1275 C63.8010776,0.1275 64.1808459,0.3825 64.1808459,0.8925 L64.1808459,13.005 C64.1808459,13.515 63.8010776,13.77 63.4213093,13.77 Z" id="XMLID_1370_"></path>
                            <path d="M109.120097,10.8375 C109.120097,11.475 108.740329,12.1125 108.233971,12.495 C106.588308,13.515 104.816056,14.025 103.043804,14.025 C100.765194,14.025 98.9929418,13.3875 97.4738685,12.1125 C96.0813847,10.8375 95.3218481,9.18 95.3218481,7.14 C95.3218481,5.865 95.5750269,4.7175 96.2079741,3.57 C96.8409213,2.4225 97.600458,1.6575 98.7397629,1.02 C99.8790679,0.3825 101.271552,0.1275 102.790625,0.1275 C104.436288,0.1275 105.828772,0.51 106.841487,1.1475 C107.601024,1.6575 108.233971,2.4225 108.613739,3.4425 C108.740329,3.825 108.48715,4.2075 108.107381,4.335 L107.727613,4.4625 C107.347845,4.59 107.094666,4.335 106.968077,4.08 C106.714898,3.4425 106.20854,2.805 105.702182,2.4225 C104.942645,1.9125 104.056519,1.6575 102.917214,1.6575 C101.144962,1.6575 99.7524784,2.1675 98.8663524,3.1875 C97.9802263,4.2075 97.4738685,5.4825 97.4738685,7.14 C97.4738685,8.2875 97.7270474,9.3075 98.1068157,10.0725 C98.4865841,10.8375 99.2461207,11.475 100.132247,11.8575 C101.018373,12.24 101.904499,12.495 102.917214,12.495 C104.309698,12.495 105.702182,12.1125 106.968077,11.3475 C107.221255,11.22 107.347845,10.965 107.347845,10.71 L107.347845,8.7975 C107.347845,8.67 107.221255,8.5425 107.094666,8.5425 L103.676751,8.5425 C103.296983,8.5425 102.917214,8.2875 102.917214,7.7775 L102.917214,7.65 C102.917214,7.2675 103.170393,6.885 103.676751,6.885 L108.613739,6.885 C108.993508,6.885 109.373276,7.14 109.373276,7.65 L109.373276,10.8375 L109.120097,10.8375 Z" id="XMLID_1368_"></path>
                            <path d="M79.2449892,13.77 L77.8525054,13.77 C77.5993265,13.77 77.3461476,13.6425 77.2195582,13.3875 L75.8270744,10.2 C75.7004849,9.945 75.447306,9.8175 75.1941272,9.8175 L69.8773707,9.8175 C69.6241918,9.8175 69.3710129,9.945 69.2444235,10.2 L67.9785291,13.3875 C67.8519397,13.6425 67.5987608,13.77 67.3455819,13.77 L66.0796875,13.77 C65.9530981,13.77 65.8265086,13.515 65.8265086,13.3875 L71.1432651,0.765 C71.2698545,0.51 71.5230334,0.3825 71.7762123,0.3825 L73.0421067,0.3825 C73.2952856,0.3825 73.5484644,0.51 73.6750539,0.765 L79.3715787,13.515 C79.6247575,13.6425 79.4981681,13.77 79.2449892,13.77 Z M70.1305496,8.0325 C70.1305496,8.16 70.1305496,8.2875 70.257139,8.2875 L74.8143588,8.2875 C74.9409483,8.2875 74.9409483,8.16 74.9409483,8.0325 C74.1814116,6.2475 73.2952856,3.825 72.7889278,2.55 C72.6623384,2.295 72.28257,2.295 72.1559806,2.55 C71.6496228,4.08 70.3837284,7.395 70.1305496,8.0325 Z" id="XMLID_1362_" fill-rule="nonzero"></path>
                            <path d="M31.6473599,13.77 L30.2548761,13.77 C30.0016972,13.77 29.7485183,13.6425 29.6219289,13.3875 L28.229445,10.2 C28.1028556,9.945 27.8496767,9.8175 27.5964978,9.8175 L22.2797414,9.8175 C22.0265625,9.8175 21.7733836,9.945 21.6467942,10.2 L20.3808998,13.3875 C20.2543103,13.6425 20.0011315,13.77 19.7479526,13.77 L18.4820582,13.77 C18.3554688,13.77 18.2288793,13.515 18.2288793,13.3875 L23.5456358,0.765 C23.6722252,0.51 23.9254041,0.3825 24.178583,0.3825 L25.4444774,0.3825 C25.6976563,0.3825 25.9508351,0.51 26.0774246,0.765 L31.7739494,13.515 C32.0271282,13.6425 31.9005388,13.77 31.6473599,13.77 Z M22.5329203,8.0325 C22.5329203,8.16 22.5329203,8.2875 22.6595097,8.2875 L27.2167295,8.2875 C27.343319,8.2875 27.343319,8.16 27.343319,8.0325 C26.5837823,6.2475 25.6976563,3.825 25.1912985,2.55 C25.0647091,2.295 24.6849407,2.295 24.5583513,2.55 C24.0519935,4.08 22.7860991,7.395 22.5329203,8.0325 Z" id="XMLID_1359_" fill-rule="nonzero"></path>
                        </g>
                        <g id="XMLID_1296_" transform="translate(0.867188, 15.300000)">
                            <path d="M8.62702047,6.12 C8.37384159,6.2475 8.37384159,6.63 8.62702047,6.7575 C9.13337823,7.0125 9.51314655,7.2675 9.76632543,7.65 C10.1460938,8.16 10.3992726,8.7975 10.3992726,9.435 C10.3992726,10.0725 10.1460938,10.71 9.76632543,11.3475 C9.38655711,11.985 8.88019935,12.3675 8.12066272,12.6225 C7.36112608,12.8775 6.475,13.005 5.2091056,13.005 L0.778475216,13.005 C0.398706897,13.005 0.0189385776,12.6225 0.0189385776,12.24 L0.0189385776,1.4025 C0.0189385776,1.02 0.398706897,0.6375 0.778475216,0.6375 L5.08251616,0.6375 C6.72817888,0.6375 7.86748384,1.02 8.50043103,1.6575 C9.13337823,2.295 9.51314655,3.06 9.51314655,3.825 C9.51314655,4.335 9.38655711,4.845 9.00678879,5.355 C9.13337823,5.61 8.88019935,5.865 8.62702047,6.12 Z M2.04436961,5.61 C2.04436961,5.7375 2.17095905,5.9925 2.42413793,5.9925 L5.08251616,5.9925 C5.71546336,5.9925 6.22182112,5.9925 6.60158944,5.865 C6.98135776,5.865 7.36112608,5.61 7.7408944,5.355 C7.99407328,5.1 8.24725216,4.7175 8.24725216,4.08 C8.24725216,3.4425 8.12066272,3.06 7.7408944,2.805 C7.36112608,2.55 7.1079472,2.4225 6.60158944,2.295 C6.22182112,2.295 5.58887392,2.1675 4.95592672,2.1675 L2.67731681,2.1675 C2.42413793,2.1675 2.29754849,2.4225 2.29754849,2.55 L2.29754849,5.61 L2.04436961,5.61 Z M2.04436961,11.0925 C2.04436961,11.3475 2.29754849,11.475 2.42413793,11.475 L5.33569504,11.475 C6.60158944,11.475 7.36112608,11.3475 7.86748384,10.965 C8.37384159,10.5825 8.62702047,10.0725 8.62702047,9.435 C8.62702047,8.7975 8.37384159,8.2875 7.86748384,7.905 C7.36112608,7.5225 6.475,7.395 5.2091056,7.395 L2.42413793,7.395 C2.29754849,7.395 2.04436961,7.5225 2.04436961,7.7775 L2.04436961,11.0925 Z" id="XMLID_1354_" fill-rule="nonzero"></path>
                            <path d="M19.8934806,13.005 L12.9310614,13.005 C12.5512931,13.005 12.1715248,12.6225 12.1715248,12.24 L12.1715248,1.4025 C12.1715248,1.02 12.5512931,0.6375 12.9310614,0.6375 L13.3108297,0.6375 C13.6905981,0.6375 14.0703664,1.02 14.0703664,1.4025 L14.0703664,11.0925 C14.0703664,11.3475 14.1969558,11.475 14.4501347,11.475 L20.02007,11.475 C20.3998384,11.475 20.7796067,11.8575 20.7796067,12.24 C20.5264278,12.75 20.2732489,13.005 19.8934806,13.005 Z" id="XMLID_1330_"></path>
                            <path d="M54.7055765,13.005 L53.5662716,13.005 C53.3130927,13.005 53.1865032,12.8775 52.9333244,12.75 L48.7558728,7.395 C48.502694,7.14 48.1229256,7.0125 47.7431573,7.2675 L46.3506735,8.5425 C46.2240841,8.67 46.0974946,8.925 46.0974946,9.0525 L46.0974946,12.24 C46.0974946,12.6225 45.7177263,13.005 45.337958,13.005 L44.9581897,13.005 C44.5784213,13.005 44.198653,12.6225 44.198653,12.24 L44.198653,1.4025 C44.198653,1.02 44.5784213,0.6375 44.9581897,0.6375 L45.337958,0.6375 C45.7177263,0.6375 46.0974946,1.02 46.0974946,1.4025 L46.0974946,5.9925 C46.0974946,6.2475 46.4772629,6.5025 46.7304418,6.2475 L52.6801455,0.8925 C52.8067349,0.765 52.9333244,0.765 53.1865032,0.765 L54.3258082,0.765 C54.7055765,0.765 54.8321659,1.1475 54.5789871,1.4025 L50.2749461,5.2275 C50.0217672,5.4825 49.8951778,5.9925 50.1483567,6.2475 L55.0853448,12.3675 C55.2119343,12.6225 55.0853448,13.005 54.7055765,13.005 Z" id="XMLID_1327_"></path>
                            <path d="M66.0986261,8.925 C66.6049838,9.0525 66.7315733,9.5625 66.6049838,9.945 C66.2252155,10.965 65.5922683,11.6025 64.8327317,12.24 C63.8200162,12.8775 62.6807112,13.26 61.2882274,13.26 C59.1362069,13.26 57.4905442,12.6225 56.4778287,11.3475 C55.4651131,10.0725 54.9587554,8.5425 54.9587554,6.7575 C54.9587554,4.845 55.5917026,3.315 56.7310075,2.1675 C57.8703125,1.02 59.3893858,0.51 61.2882274,0.51 C62.5541218,0.51 63.6934267,0.765 64.7061422,1.4025 C65.3390894,1.9125 65.9720366,2.4225 66.351805,3.1875 C66.6049838,3.57 66.351805,4.08 65.8454472,4.2075 L65.4656789,4.335 C65.0859106,4.4625 64.8327317,4.2075 64.7061422,3.9525 C64.4529634,3.315 64.073195,2.9325 63.5668373,2.55 C62.9338901,2.1675 62.1743534,1.9125 61.2882274,1.9125 C59.7691541,1.9125 58.6298491,2.295 57.8703125,3.1875 C57.1107759,4.08 56.7310075,5.2275 56.7310075,6.7575 C56.7310075,8.415 57.1107759,9.69 57.9969019,10.5825 C58.883028,11.475 59.8957435,11.8575 61.1616379,11.8575 C62.1743534,11.8575 63.0604795,11.6025 63.6934267,11.0925 C64.1997845,10.71 64.5795528,10.0725 64.8327317,9.3075 C64.9593211,8.925 65.3390894,8.7975 65.7188578,8.7975 L66.0986261,8.925 Z" id="XMLID_1313_"></path>
                            <path d="M78.2512123,13.005 L77.871444,13.005 C77.4916756,13.005 77.1119073,12.6225 77.1119073,12.24 L77.1119073,7.65 C77.1119073,7.395 76.9853179,7.2675 76.732139,7.2675 L70.402667,7.2675 C70.1494881,7.2675 70.0228987,7.395 70.0228987,7.65 L70.0228987,12.3675 C70.0228987,12.75 69.6431304,13.1325 69.2633621,13.1325 L68.8835938,13.1325 C68.5038254,13.1325 68.1240571,12.75 68.1240571,12.3675 L68.1240571,1.53 C68.1240571,1.1475 68.5038254,0.765 68.8835938,0.765 L69.2633621,0.765 C69.6431304,0.765 70.0228987,1.1475 70.0228987,1.53 L70.0228987,5.4825 C70.0228987,5.7375 70.1494881,5.865 70.402667,5.865 L76.732139,5.865 C76.9853179,5.865 77.1119073,5.7375 77.1119073,5.4825 L77.1119073,1.53 C77.1119073,1.1475 77.4916756,0.765 77.871444,0.765 L78.2512123,0.765 C78.6309806,0.765 79.0107489,1.1475 79.0107489,1.53 L79.0107489,12.3675 C78.8841595,12.75 78.6309806,13.005 78.2512123,13.005 Z" id="XMLID_1311_"></path>
                            <path d="M92.0494612,13.005 L90.9101563,13.005 C90.6569774,13.005 90.4037985,12.8775 90.2772091,12.6225 L89.0113147,9.8175 C88.8847252,9.5625 88.6315463,9.435 88.3783675,9.435 L83.6945582,9.435 C83.4413793,9.435 83.1882004,9.5625 83.061611,9.945 L81.922306,12.75 C81.7957166,13.005 81.5425377,13.26 81.2893588,13.26 L80.1500539,13.26 C80.0234644,13.26 79.896875,13.005 79.896875,12.8775 L84.7072737,1.4025 C84.8338631,1.1475 85.087042,1.02 85.3402209,1.02 L86.3529364,1.02 C86.6061153,1.02 86.8592942,1.1475 86.9858836,1.4025 L92.1760506,12.8775 C92.3026401,12.8775 92.1760506,13.005 92.0494612,13.005 Z M88.1251886,7.7775 C87.3656519,5.865 86.6061153,3.9525 86.226347,2.9325 C86.0997575,2.6775 85.7199892,2.6775 85.5933998,2.9325 C85.087042,4.335 84.0743265,7.0125 83.6945582,7.7775 C83.6945582,7.905 83.6945582,8.0325 83.9477371,8.0325 L87.8720097,8.0325 C88.1251886,8.0325 88.251778,7.905 88.1251886,7.7775 Z" id="XMLID_1308_" fill-rule="nonzero"></path>
                            <path d="M94.4546606,13.005 L94.0748922,13.005 C93.6951239,13.005 93.3153556,12.6225 93.3153556,12.24 L93.3153556,1.4025 C93.3153556,1.02 93.6951239,0.6375 94.0748922,0.6375 L94.4546606,0.6375 C94.8344289,0.6375 95.2141972,1.02 95.2141972,1.4025 L95.2141972,12.24 C95.2141972,12.75 94.8344289,13.005 94.4546606,13.005 Z" id="XMLID_1306_"></path>
                            <path d="M107.493373,13.005 L106.733836,13.005 C106.480657,13.005 106.227478,12.8775 106.100889,12.75 L99.771417,4.2075 C99.6448276,3.9525 99.1384698,4.08 99.1384698,4.4625 L99.1384698,12.3675 C99.1384698,12.75 98.7587015,13.1325 98.3789332,13.1325 L98.1257543,13.1325 C97.745986,13.1325 97.3662177,12.75 97.3662177,12.3675 L97.3662177,1.53 C97.3662177,1.1475 97.745986,0.765 98.1257543,0.765 L98.8852909,0.765 C99.1384698,0.765 99.3916487,0.8925 99.5182381,1.02 L105.84771,9.5625 C105.9743,9.8175 106.480657,9.69 106.480657,9.3075 L106.480657,1.4025 C106.480657,1.02 106.860426,0.6375 107.240194,0.6375 L107.493373,0.6375 C107.873141,0.6375 108.252909,1.02 108.252909,1.4025 L108.252909,12.24 C108.252909,12.75 107.873141,13.005 107.493373,13.005 Z" id="XMLID_1304_"></path>
                            <path d="M32.679014,8.0325 C32.9321929,6.885 32.8056034,5.7375 33.5651401,4.2075 C33.6917295,3.825 33.9449084,3.57 34.1980873,3.315 C34.9576239,2.4225 36.0969289,2.04 37.6160022,2.04 C38.5021282,2.04 39.2616649,2.295 39.8946121,2.6775 C40.2743804,2.9325 40.6541487,3.315 40.9073276,3.825 C41.1605065,4.335 41.7934537,4.59 42.2998114,4.4625 L42.5529903,4.4625 C42.8061692,4.4625 42.9327586,4.08 42.8061692,3.9525 C42.4264009,3.06 41.7934537,2.295 41.033917,1.785 C40.1477909,1.1475 39.008486,0.8925 37.6160022,0.8925 C35.7171606,0.8925 34.1980873,1.4025 33.0587823,2.55 C32.679014,2.9325 32.2992457,3.4425 32.0460668,3.825 C32.0460668,3.825 31.7928879,4.2075 31.5397091,4.9725 C31.5397091,4.9725 31.5397091,5.1 31.5397091,5.1 C31.5397091,5.2275 31.5397091,5.355 31.4131196,5.4825 C31.4131196,5.61 31.4131196,5.61 31.4131196,5.7375 C31.4131196,5.865 31.4131196,5.9925 31.4131196,6.12 C31.4131196,6.2475 31.4131196,6.2475 31.4131196,6.375 C31.4131196,6.5025 31.4131196,6.63 31.4131196,6.7575 C31.4131196,8.7975 30.2738147,10.2 29.8940463,10.71 C29.0079203,11.6025 27.8686153,11.985 26.6027209,11.985 C25.2102371,11.985 24.0709321,11.6025 23.3113955,10.71 C22.4252694,9.8175 22.0455011,8.67 22.0455011,7.2675 C22.0455011,5.4825 22.4252694,4.2075 23.3113955,3.4425 C24.1975216,2.55 25.3368265,2.1675 26.6027209,2.1675 C27.8686153,2.1675 29.0079203,2.55 29.8940463,3.4425 C30.1472252,3.6975 30.4004041,4.08 30.653583,4.4625 C30.7801724,4.59 31.0333513,4.59 31.0333513,4.4625 C31.1599407,4.08 31.2865302,3.6975 31.4131196,3.4425 C31.5397091,3.1875 31.5397091,2.9325 31.2865302,2.6775 C31.2865302,2.6775 31.1599407,2.55 31.1599407,2.55 C29.8940463,1.4025 28.3749731,0.765 26.4761315,0.765 C24.5772899,0.765 23.0582166,1.4025 21.7923222,2.55 C20.5264278,3.6975 20.02007,5.355 20.02007,7.2675 C20.02007,9.0525 20.6530172,10.455 21.7923222,11.6025 C22.9316272,12.75 24.5772899,13.3875 26.4761315,13.3875 C28.2483836,13.3875 29.7674569,12.8775 30.9067619,11.8575 C30.9067619,11.8575 31.2865302,11.6025 31.6662985,11.0925 C31.6662985,11.0925 31.6662985,11.0925 31.6662985,11.0925 C31.6662985,11.0925 31.6662985,11.0925 31.6662985,11.0925 C31.9194774,10.3275 32.4258351,9.3075 32.679014,8.0325 Z M42.2998114,9.0525 C41.6668642,8.925 41.1605065,9.18 40.7807381,9.8175 C40.5275593,10.3275 40.1477909,10.8375 39.7680226,11.22 C39.1350754,11.73 38.2489494,11.985 37.2362338,11.985 C35.9703394,11.985 34.9576239,11.6025 34.0714978,10.71 C33.818319,10.455 33.5651401,10.2 33.4385506,9.8175 C33.3119612,9.69 33.0587823,9.69 33.0587823,9.8175 C32.9321929,10.0725 32.8056034,10.455 32.5524246,10.8375 C32.4258351,11.0925 32.4258351,11.3475 32.5524246,11.6025 C32.679014,11.73 32.8056034,11.8575 32.9321929,11.985 C33.9449084,13.005 35.4639817,13.3875 37.3628233,13.3875 C38.7553071,13.3875 39.8946121,13.005 40.9073276,12.3675 C41.7934537,11.73 42.4264009,10.8375 42.8061692,9.69 C42.9327586,9.435 42.8061692,9.18 42.5529903,9.18 L42.2998114,9.0525 Z" id="XMLID_1297_" fill-rule="nonzero"></path>
                        </g>
                    </g>
                </g>
            </g>
        </g>
    </g>
</svg>