<svg width="72" height="30" viewBox="0 0 72 30" fill="none" xmlns="http://www.w3.org/2000/svg">
<path fill-rule="evenodd" clip-rule="evenodd" d="M48.3607 5.51948H44.7594V4.78098C44.7594 4.35023 44.414 4.00098 43.9879 4.00098C43.562 4.00098 43.2164 4.35023 43.2164 4.78098V5.51948H34.8663V4.78098C34.8663 4.35023 34.5209 4.00098 34.095 4.00098C33.6689 4.00098 33.3236 4.35023 33.3236 4.78098V5.51948H29.7165C29.2909 5.51948 28.9458 5.86848 28.9458 6.29898C28.9458 6.72923 29.2909 7.07823 29.7165 7.07823H32.0876H33.6303H44.4523H45.9953H48.3607C48.7863 7.07823 49.1312 6.72923 49.1312 6.29898C49.1312 5.86848 48.7863 5.51948 48.3607 5.51948ZM32.954 15.3888C32.954 15.819 32.6089 16.168 32.1832 16.168C31.7576 16.168 31.4127 15.819 31.4127 15.3888V9.34902C31.4127 8.91852 31.7576 8.56952 32.1832 8.56952C32.6089 8.56952 32.954 8.91852 32.954 9.34902V15.3888ZM35.7674 19.2929H32.3821C32.1918 19.2929 32.0375 19.4489 32.0375 19.6414V24.3257H35.7674V19.2929ZM40.7686 24.3257H37.3084V19.2929H40.7686V24.3257ZM42.3098 24.3257H46.0394V19.6414C46.0394 19.4489 45.8852 19.2929 45.6948 19.2929H42.3098V24.3257ZM47.5809 19.3397V24.3257H48.3606C48.7862 24.3257 49.1313 24.6747 49.1313 25.1052C49.1313 25.5357 48.7862 25.8844 48.3606 25.8844H29.7164C29.291 25.8844 28.9459 25.5357 28.9459 25.1052C28.9459 24.6747 29.291 24.3257 29.7164 24.3257H30.4963V19.3397C30.4963 18.4529 31.207 17.7342 32.0835 17.7342H45.9935C46.8702 17.7342 47.5809 18.4529 47.5809 19.3397ZM36.5411 16.1792C36.9668 16.1792 37.3116 15.8302 37.3116 15.3999V9.36019C37.3116 8.92969 36.9668 8.58069 36.5411 8.58069C36.1155 8.58069 35.7706 8.92969 35.7706 9.36019V15.3999C35.7706 15.8302 36.1155 16.1792 36.5411 16.1792ZM47.0142 12.6009C47.0142 12.0484 46.5712 11.6004 46.0249 11.6004H41.6996L43.3575 9.92519C43.8445 9.43319 43.4999 8.59119 42.8117 8.59119C42.6068 8.59119 42.4103 8.67344 42.2654 8.82019L39.8948 11.2062C39.6442 11.4587 39.5031 11.8017 39.5031 12.1594C39.5031 12.7119 39.946 13.1597 40.4923 13.1597H44.8228L43.1679 14.8337C42.6817 15.3254 43.026 16.1664 43.7137 16.1664C43.9184 16.1664 44.1149 16.0842 44.2595 15.9377L46.6234 13.5537C46.8735 13.3014 47.0142 12.9589 47.0142 12.6017V12.6009ZM60.6532 22.5515V19.367C60.6532 18.3488 59.837 17.5233 58.8302 17.5233C57.8234 17.5233 57.0074 18.3488 57.0074 19.367V22.5515C57.0074 23.5698 57.8234 24.3953 58.8302 24.3953C59.837 24.3953 60.6532 23.5698 60.6532 22.5515ZM62.1554 10.176C62.1554 10.588 61.8252 10.9223 61.4178 10.9223H59.549V16.0963C61.0337 16.4285 62.1448 17.7655 62.1448 19.367V22.5515C62.1448 24.4028 60.6609 25.9035 58.8302 25.9035C56.9998 25.9035 55.5159 24.4028 55.5159 22.5515V19.367C55.5159 17.7795 56.6082 16.4528 58.0735 16.1063V10.9223H56.2048C55.7972 10.9223 55.4669 10.588 55.4669 10.176C55.4669 9.76404 55.7972 9.42979 56.2048 9.42979H58.0735V4.74704C58.0735 4.33504 58.4038 4.00104 58.8112 4.00104C59.2188 4.00104 59.549 4.33504 59.549 4.74704V9.42979H61.4178C61.8252 9.42979 62.1554 9.76404 62.1554 10.176ZM53.3143 5.20504C53.1343 4.81479 52.6758 4.64629 52.2902 4.82804C51.9045 5.01004 51.7377 5.47379 51.9174 5.86379L52.8513 7.88929C53.0312 8.27929 53.4898 8.44829 53.8754 8.26629C54.2613 8.08429 54.4281 7.62079 54.2482 7.23054L53.3143 5.20504ZM52.2902 9.96792C52.6758 9.78592 53.1343 9.95467 53.3143 10.3449L54.2482 12.3704C54.4281 12.7607 54.2613 13.2242 53.8754 13.4062C53.4898 13.5882 53.0312 13.4192 52.8513 13.0292L51.9174 11.0037C51.7377 10.6137 51.9045 10.1499 52.2902 9.96792ZM53.0828 15.6755C52.6571 15.6755 52.3123 16.0245 52.3123 16.455V25.1242C52.3123 25.5547 52.6571 25.9037 53.0828 25.9037C53.5084 25.9037 53.8535 25.5547 53.8535 25.1242V16.455C53.8535 16.0245 53.5084 15.6755 53.0828 15.6755ZM68.9395 13.1011V15.3149H65.1278V13.1011H68.9395ZM68.9395 7.9739C68.9395 6.9094 68.0862 6.0464 67.0336 6.0464C65.9811 6.0464 65.1278 6.9094 65.1278 7.9739V11.6086H68.9395V7.9739ZM70.4301 22.8732C70.4299 22.8749 70.4296 22.8765 70.4295 22.8784C70.4297 22.8836 70.431 22.8887 70.4314 22.894C70.4315 22.895 70.4315 22.8961 70.4315 22.8971C70.4315 24.7379 69.8017 25.8709 68.2367 25.8669C67.8239 25.8656 67.4828 25.5281 67.4892 25.1104C67.4946 24.7414 67.7841 24.3824 68.2367 24.3541C68.9372 24.3105 68.9367 23.7368 68.936 22.9693C68.936 22.9454 68.936 22.9214 68.936 22.8971C68.936 22.8905 68.9369 22.8843 68.9378 22.8779C68.9385 22.8732 68.9392 22.8685 68.9395 22.8636V16.8071H65.1278V25.1166C65.1278 25.5334 64.7938 25.8709 64.382 25.8709C63.9702 25.8709 63.6362 25.5334 63.6362 25.1166V7.9739C63.6362 6.0764 65.1572 4.53815 67.0336 4.53815C68.9098 4.53815 70.4308 6.0764 70.4308 7.9739V22.8666C70.4308 22.869 70.4305 22.8711 70.4301 22.8732Z" fill="#323541"/>
<path fill-rule="evenodd" clip-rule="evenodd" d="M12.701 18.1141C11.2663 18.1141 9.97842 17.4879 9.08359 16.4926C8.2948 15.6124 7.81352 14.4451 7.81352 13.1646C7.81352 10.4316 10.0022 8.2171 12.701 8.2171C14.4649 8.2171 16.0094 9.1621 16.8657 10.5796C16.8674 10.5816 16.8691 10.5831 16.8691 10.5851C17.3247 11.3376 17.5865 12.2196 17.5865 13.1646C17.5865 15.8976 15.3998 18.1141 12.701 18.1141ZM23.4454 23.4479C22.1459 21.9769 21.0009 20.2799 20.9979 14.0429C21.0039 13.8991 21.0044 13.8944 21.0044 13.7489C21.0044 11.2024 20.0989 8.8941 18.6313 7.21185C18.7421 7.06785 18.8558 6.8966 18.9685 6.70585C18.9831 6.6821 18.9959 6.65835 19.0086 6.6346C19.1413 6.4071 19.2723 6.15435 19.3942 5.8851C19.5143 5.61935 19.6233 5.34285 19.7163 5.06785C19.7271 5.0331 19.74 4.9986 19.7489 4.9636C19.8053 4.78585 19.8542 4.60835 19.8945 4.43785C20.0801 3.62985 20.0453 2.93735 19.5835 2.74135C19.3213 2.6296 19.0048 2.9446 18.6373 3.4081C18.6247 3.4246 18.6101 3.4411 18.5955 3.45935C18.5792 3.4796 18.5629 3.49985 18.5463 3.5216C18.3063 3.8331 18.0408 4.19785 17.7516 4.53485C17.7296 4.5606 17.7078 4.5861 17.6861 4.61185C17.6732 4.62635 17.6606 4.6411 17.6478 4.65585C17.3316 5.0131 16.988 5.33085 16.617 5.5151C15.4616 4.8221 14.1428 4.42935 12.743 4.42935C11.3073 4.42935 9.95716 4.84235 8.78078 5.5691C8.36426 5.39735 7.98112 5.05085 7.63159 4.65585C7.61873 4.6411 7.60613 4.62635 7.59352 4.61185C7.57152 4.5861 7.54977 4.5606 7.52777 4.53485C7.23855 4.19785 6.97307 3.8331 6.73305 3.5216C6.71673 3.49985 6.70017 3.4796 6.68386 3.45935C6.66927 3.4411 6.65494 3.4246 6.64208 3.4081C6.27451 2.9446 5.95811 2.6296 5.69608 2.74135C5.23408 2.93735 5.19948 3.62985 5.38487 4.43785C5.42491 4.60835 5.47411 4.78585 5.53047 4.9636C5.53961 4.9986 5.55222 5.0331 5.56309 5.06785C5.65604 5.34285 5.7653 5.61935 5.88518 5.8851C6.00705 6.15435 6.13806 6.4071 6.27105 6.6346C6.28366 6.65835 6.29626 6.6821 6.31085 6.70585C6.45793 6.95485 6.60673 7.17035 6.74838 7.3361C5.34359 9.00685 4.48163 11.2644 4.48163 13.7489C4.48163 13.9469 4.47125 14.0171 4.48188 14.2121C4.45691 20.3191 3.24321 21.9894 1.95485 23.4479C1.03109 24.4936 1.81691 26.6896 3.74525 25.7096C7.63159 23.7346 8.53754 27.4004 12.6953 27.2781C16.853 27.1559 17.6478 23.7346 21.655 25.7096C23.5949 26.6661 24.3689 24.4936 23.4454 23.4479Z" fill="#4972F1"/>
<path fill-rule="evenodd" clip-rule="evenodd" d="M17.2015 12.4473C17.2015 13.8308 16.0944 14.9521 14.7282 14.9521C13.3622 14.9521 12.2548 13.8308 12.2548 12.4473C12.2548 11.0638 13.3622 9.94232 14.7282 9.94232C16.0944 9.94232 17.2015 11.0638 17.2015 12.4473Z" fill="#323541"/>
</svg>
